<svg width="206" height="186" viewBox="0 0 206 186" fill="none" xmlns="http://www.w3.org/2000/svg">
<rect x="8.04289e-06" y="184" width="184" height="206" rx="31.4387" transform="rotate(-90 8.04289e-06 184)" fill="url(#paint0_linear_4297_2853)" fill-opacity="0.15"/>
<rect x="1.06248" y="182.938" width="181.875" height="203.875" rx="30.3762" transform="rotate(-90 1.06248 182.938)" stroke="url(#paint1_linear_4297_2853)" stroke-opacity="0.28" stroke-width="2.12494"/>
<g filter="url(#filter0_ddi_4297_2853)">
<g clip-path="url(#paint2_diamond_4297_2853_clip_path)" data-figma-skip-parse="true"><g transform="matrix(0.141039 -0.0552386 0.0443882 0.175516 43.375 118.133)"><rect x="0" y="0" width="826.137" height="411.417" fill="url(#paint2_diamond_4297_2853)" opacity="1" shape-rendering="crispEdges"/><rect x="0" y="0" width="826.137" height="411.417" transform="scale(1 -1)" fill="url(#paint2_diamond_4297_2853)" opacity="1" shape-rendering="crispEdges"/><rect x="0" y="0" width="826.137" height="411.417" transform="scale(-1 1)" fill="url(#paint2_diamond_4297_2853)" opacity="1" shape-rendering="crispEdges"/><rect x="0" y="0" width="826.137" height="411.417" transform="scale(-1)" fill="url(#paint2_diamond_4297_2853)" opacity="1" shape-rendering="crispEdges"/></g></g><path d="M147.2 89.6946L105.949 37.4265C105.598 36.982 105.15 36.6226 104.639 36.3755C104.128 36.1284 103.568 36 103 36C102.432 36 101.872 36.1284 101.361 36.3755C100.85 36.6226 100.402 36.982 100.051 37.4265L58.8004 89.6946C58.2819 90.3522 58 91.164 58 92C58 92.836 58.2819 93.6478 58.8004 94.3054L100.051 146.573C100.402 147.018 100.85 147.377 101.361 147.624C101.872 147.872 102.432 148 103 148C103.568 148 104.128 147.872 104.639 147.624C105.15 147.377 105.598 147.018 105.949 146.573L147.2 94.3054C147.718 93.6478 148 92.836 148 92C148 91.164 147.718 90.3522 147.2 89.6946ZM106.75 59.8607C106.75 56.9413 106.75 55.4816 107.31 54.9006C107.753 54.4409 108.388 54.2202 109.021 54.3067C109.82 54.4159 110.725 55.5618 112.533 57.8534L135.788 87.316C136.681 88.4479 137.128 89.0138 137.189 89.5882C137.238 90.0497 137.125 90.5139 136.869 90.9013C136.551 91.3834 135.894 91.6806 134.581 92.2752L111.326 102.8C109.77 103.504 108.992 103.856 108.365 103.733C107.863 103.635 107.418 103.347 107.121 102.93C106.75 102.41 106.75 101.556 106.75 99.8482V59.8607ZM99.2499 99.8482C99.2499 101.556 99.2499 102.41 98.8792 102.93C98.5824 103.347 98.1371 103.635 97.6349 103.733C97.0076 103.856 96.2297 103.504 94.674 102.8L71.4194 92.2752C70.1058 91.6806 69.449 91.3834 69.1308 90.9013C68.8751 90.5139 68.7621 90.0497 68.8111 89.5882C68.8721 89.0138 69.3188 88.4479 70.2121 87.316L93.4667 57.8534C95.2754 55.5618 96.1798 54.4159 96.979 54.3067C97.6115 54.2202 98.2473 54.4409 98.6902 54.9006C99.2499 55.4816 99.2499 56.9413 99.2499 59.8607V99.8482ZM97.3454 112.209C98.0494 112.527 98.4014 112.687 98.6566 112.939C98.8638 113.144 99.0237 113.392 99.125 113.665C99.2499 114.002 99.2499 114.388 99.2499 115.161V124.139C99.2499 127.058 99.2499 128.518 98.6902 129.099C98.2473 129.559 97.6115 129.78 96.979 129.693C96.1797 129.584 95.2754 128.438 93.4666 126.146L82.4457 112.182C79.981 109.059 78.7487 107.498 78.8862 106.633C78.9945 105.952 79.4459 105.374 80.0809 105.105C80.8875 104.763 82.6999 105.583 86.3245 107.223L97.3454 112.209ZM106.75 115.161C106.75 114.388 106.75 114.002 106.875 113.665C106.976 113.392 107.136 113.144 107.343 112.939C107.598 112.687 107.95 112.527 108.654 112.209L119.672 107.222C123.298 105.581 125.11 104.761 125.917 105.103C126.552 105.372 127.004 105.949 127.112 106.63C127.25 107.495 126.017 109.057 123.551 112.181L112.533 126.141C110.725 128.433 109.82 129.579 109.021 129.688C108.389 129.775 107.753 129.554 107.31 129.094C106.75 128.513 106.75 127.054 106.75 124.134V115.161Z" data-figma-gradient-fill="{&#34;type&#34;:&#34;GRADIENT_DIAMOND&#34;,&#34;stops&#34;:[{&#34;color&#34;:{&#34;r&#34;:0.63921570777893066,&#34;g&#34;:0.28627452254295349,&#34;b&#34;:0.93725490570068359,&#34;a&#34;:1.0},&#34;position&#34;:0.4218750},{&#34;color&#34;:{&#34;r&#34;:1.0,&#34;g&#34;:0.39550781250,&#34;b&#34;:0.90328133106231689,&#34;a&#34;:1.0},&#34;position&#34;:1.0}],&#34;stopsVar&#34;:[],&#34;transform&#34;:{&#34;m00&#34;:282.07894897460938,&#34;m01&#34;:88.776313781738281,&#34;m02&#34;:-142.05261230468750,&#34;m10&#34;:-110.47719573974609,&#34;m11&#34;:351.03155517578125,&#34;m12&#34;:-2.1438531875610352},&#34;opacity&#34;:1.0,&#34;blendMode&#34;:&#34;NORMAL&#34;,&#34;visible&#34;:true}"/>
<g clip-path="url(#paint3_diamond_4297_2853_clip_path)" data-figma-skip-parse="true"><g transform="matrix(0.0632813 -0.03885 0.0165276 0.0416912 85.8438 61.9)"><rect x="0" y="0" width="958.168" height="2463.23" fill="url(#paint3_diamond_4297_2853)" opacity="1" shape-rendering="crispEdges"/><rect x="0" y="0" width="958.168" height="2463.23" transform="scale(1 -1)" fill="url(#paint3_diamond_4297_2853)" opacity="1" shape-rendering="crispEdges"/><rect x="0" y="0" width="958.168" height="2463.23" transform="scale(-1 1)" fill="url(#paint3_diamond_4297_2853)" opacity="1" shape-rendering="crispEdges"/><rect x="0" y="0" width="958.168" height="2463.23" transform="scale(-1)" fill="url(#paint3_diamond_4297_2853)" opacity="1" shape-rendering="crispEdges"/></g></g><path d="M147.2 89.6946L105.949 37.4265C105.598 36.982 105.15 36.6226 104.639 36.3755C104.128 36.1284 103.568 36 103 36C102.432 36 101.872 36.1284 101.361 36.3755C100.85 36.6226 100.402 36.982 100.051 37.4265L58.8004 89.6946C58.2819 90.3522 58 91.164 58 92C58 92.836 58.2819 93.6478 58.8004 94.3054L100.051 146.573C100.402 147.018 100.85 147.377 101.361 147.624C101.872 147.872 102.432 148 103 148C103.568 148 104.128 147.872 104.639 147.624C105.15 147.377 105.598 147.018 105.949 146.573L147.2 94.3054C147.718 93.6478 148 92.836 148 92C148 91.164 147.718 90.3522 147.2 89.6946ZM106.75 59.8607C106.75 56.9413 106.75 55.4816 107.31 54.9006C107.753 54.4409 108.388 54.2202 109.021 54.3067C109.82 54.4159 110.725 55.5618 112.533 57.8534L135.788 87.316C136.681 88.4479 137.128 89.0138 137.189 89.5882C137.238 90.0497 137.125 90.5139 136.869 90.9013C136.551 91.3834 135.894 91.6806 134.581 92.2752L111.326 102.8C109.77 103.504 108.992 103.856 108.365 103.733C107.863 103.635 107.418 103.347 107.121 102.93C106.75 102.41 106.75 101.556 106.75 99.8482V59.8607ZM99.2499 99.8482C99.2499 101.556 99.2499 102.41 98.8792 102.93C98.5824 103.347 98.1371 103.635 97.6349 103.733C97.0076 103.856 96.2297 103.504 94.674 102.8L71.4194 92.2752C70.1058 91.6806 69.449 91.3834 69.1308 90.9013C68.8751 90.5139 68.7621 90.0497 68.8111 89.5882C68.8721 89.0138 69.3188 88.4479 70.2121 87.316L93.4667 57.8534C95.2754 55.5618 96.1798 54.4159 96.979 54.3067C97.6115 54.2202 98.2473 54.4409 98.6902 54.9006C99.2499 55.4816 99.2499 56.9413 99.2499 59.8607V99.8482ZM97.3454 112.209C98.0494 112.527 98.4014 112.687 98.6566 112.939C98.8638 113.144 99.0237 113.392 99.125 113.665C99.2499 114.002 99.2499 114.388 99.2499 115.161V124.139C99.2499 127.058 99.2499 128.518 98.6902 129.099C98.2473 129.559 97.6115 129.78 96.979 129.693C96.1797 129.584 95.2754 128.438 93.4666 126.146L82.4457 112.182C79.981 109.059 78.7487 107.498 78.8862 106.633C78.9945 105.952 79.4459 105.374 80.0809 105.105C80.8875 104.763 82.6999 105.583 86.3245 107.223L97.3454 112.209ZM106.75 115.161C106.75 114.388 106.75 114.002 106.875 113.665C106.976 113.392 107.136 113.144 107.343 112.939C107.598 112.687 107.95 112.527 108.654 112.209L119.672 107.222C123.298 105.581 125.11 104.761 125.917 105.103C126.552 105.372 127.004 105.949 127.112 106.63C127.25 107.495 126.017 109.057 123.551 112.181L112.533 126.141C110.725 128.433 109.82 129.579 109.021 129.688C108.389 129.775 107.753 129.554 107.31 129.094C106.75 128.513 106.75 127.054 106.75 124.134V115.161Z" data-figma-gradient-fill="{&#34;type&#34;:&#34;GRADIENT_DIAMOND&#34;,&#34;stops&#34;:[{&#34;color&#34;:{&#34;r&#34;:1.0,&#34;g&#34;:0.6250,&#34;b&#34;:0.91750001907348633,&#34;a&#34;:1.0},&#34;position&#34;:0.0},{&#34;color&#34;:{&#34;r&#34;:1.0,&#34;g&#34;:1.0,&#34;b&#34;:1.0,&#34;a&#34;:0.0},&#34;position&#34;:1.0}],&#34;stopsVar&#34;:[],&#34;transform&#34;:{&#34;m00&#34;:126.56250762939453,&#34;m01&#34;:33.055164337158203,&#34;m02&#34;:6.0349230766296387,&#34;m10&#34;:-77.699996948242188,&#34;m11&#34;:83.382400512695312,&#34;m12&#34;:59.058799743652344},&#34;opacity&#34;:1.0,&#34;blendMode&#34;:&#34;NORMAL&#34;,&#34;visible&#34;:true}"/>
<path d="M147.2 89.6946L105.949 37.4265C105.598 36.982 105.15 36.6226 104.639 36.3755C104.128 36.1284 103.568 36 103 36C102.432 36 101.872 36.1284 101.361 36.3755C100.85 36.6226 100.402 36.982 100.051 37.4265L58.8004 89.6946C58.2819 90.3522 58 91.164 58 92C58 92.836 58.2819 93.6478 58.8004 94.3054L100.051 146.573C100.402 147.018 100.85 147.377 101.361 147.624C101.872 147.872 102.432 148 103 148C103.568 148 104.128 147.872 104.639 147.624C105.15 147.377 105.598 147.018 105.949 146.573L147.2 94.3054C147.718 93.6478 148 92.836 148 92C148 91.164 147.718 90.3522 147.2 89.6946ZM106.75 59.8607C106.75 56.9413 106.75 55.4816 107.31 54.9006C107.753 54.4409 108.388 54.2202 109.021 54.3067C109.82 54.4159 110.725 55.5618 112.533 57.8534L135.788 87.316C136.681 88.4479 137.128 89.0138 137.189 89.5882C137.238 90.0497 137.125 90.5139 136.869 90.9013C136.551 91.3834 135.894 91.6806 134.581 92.2752L111.326 102.8C109.77 103.504 108.992 103.856 108.365 103.733C107.863 103.635 107.418 103.347 107.121 102.93C106.75 102.41 106.75 101.556 106.75 99.8482V59.8607ZM99.2499 99.8482C99.2499 101.556 99.2499 102.41 98.8792 102.93C98.5824 103.347 98.1371 103.635 97.6349 103.733C97.0076 103.856 96.2297 103.504 94.674 102.8L71.4194 92.2752C70.1058 91.6806 69.449 91.3834 69.1308 90.9013C68.8751 90.5139 68.7621 90.0497 68.8111 89.5882C68.8721 89.0138 69.3188 88.4479 70.2121 87.316L93.4667 57.8534C95.2754 55.5618 96.1798 54.4159 96.979 54.3067C97.6115 54.2202 98.2473 54.4409 98.6902 54.9006C99.2499 55.4816 99.2499 56.9413 99.2499 59.8607V99.8482ZM97.3454 112.209C98.0494 112.527 98.4014 112.687 98.6566 112.939C98.8638 113.144 99.0237 113.392 99.125 113.665C99.2499 114.002 99.2499 114.388 99.2499 115.161V124.139C99.2499 127.058 99.2499 128.518 98.6902 129.099C98.2473 129.559 97.6115 129.78 96.979 129.693C96.1797 129.584 95.2754 128.438 93.4666 126.146L82.4457 112.182C79.981 109.059 78.7487 107.498 78.8862 106.633C78.9945 105.952 79.4459 105.374 80.0809 105.105C80.8875 104.763 82.6999 105.583 86.3245 107.223L97.3454 112.209ZM106.75 115.161C106.75 114.388 106.75 114.002 106.875 113.665C106.976 113.392 107.136 113.144 107.343 112.939C107.598 112.687 107.95 112.527 108.654 112.209L119.672 107.222C123.298 105.581 125.11 104.761 125.917 105.103C126.552 105.372 127.004 105.949 127.112 106.63C127.25 107.495 126.017 109.057 123.551 112.181L112.533 126.141C110.725 128.433 109.82 129.579 109.021 129.688C108.389 129.775 107.753 129.554 107.31 129.094C106.75 128.513 106.75 127.054 106.75 124.134V115.161Z" fill="url(#paint4_linear_4297_2853)"/>
</g>
<defs>
<filter id="filter0_ddi_4297_2853" x="22.4284" y="2.21917" width="161.143" height="183.143" filterUnits="userSpaceOnUse" color-interpolation-filters="sRGB">
<feFlood flood-opacity="0" result="BackgroundImageFix"/>
<feColorMatrix in="SourceAlpha" type="matrix" values="0 0 0 0 0 0 0 0 0 0 0 0 0 0 0 0 0 0 127 0" result="hardAlpha"/>
<feOffset dy="1.79074"/>
<feGaussianBlur stdDeviation="14.9384"/>
<feComposite in2="hardAlpha" operator="out"/>
<feColorMatrix type="matrix" values="0 0 0 0 0.827451 0 0 0 0 0.87451 0 0 0 0 0.913725 0 0 0 0.39 0"/>
<feBlend mode="normal" in2="BackgroundImageFix" result="effect1_dropShadow_4297_2853"/>
<feColorMatrix in="SourceAlpha" type="matrix" values="0 0 0 0 0 0 0 0 0 0 0 0 0 0 0 0 0 0 127 0" result="hardAlpha"/>
<feOffset dy="1.79074"/>
<feGaussianBlur stdDeviation="17.7858"/>
<feComposite in2="hardAlpha" operator="out"/>
<feColorMatrix type="matrix" values="0 0 0 0 1 0 0 0 0 1 0 0 0 0 1 0 0 0 0.25 0"/>
<feBlend mode="normal" in2="effect1_dropShadow_4297_2853" result="effect2_dropShadow_4297_2853"/>
<feBlend mode="normal" in="SourceGraphic" in2="effect2_dropShadow_4297_2853" result="shape"/>
<feColorMatrix in="SourceAlpha" type="matrix" values="0 0 0 0 0 0 0 0 0 0 0 0 0 0 0 0 0 0 127 0" result="hardAlpha"/>
<feOffset/>
<feGaussianBlur stdDeviation="6.54973"/>
<feComposite in2="hardAlpha" operator="arithmetic" k2="-1" k3="1"/>
<feColorMatrix type="matrix" values="0 0 0 0 1 0 0 0 0 1 0 0 0 0 1 0 0 0 1 0"/>
<feBlend mode="normal" in2="shape" result="effect3_innerShadow_4297_2853"/>
</filter>
<clipPath id="paint2_diamond_4297_2853_clip_path"><path d="M147.2 89.6946L105.949 37.4265C105.598 36.982 105.15 36.6226 104.639 36.3755C104.128 36.1284 103.568 36 103 36C102.432 36 101.872 36.1284 101.361 36.3755C100.85 36.6226 100.402 36.982 100.051 37.4265L58.8004 89.6946C58.2819 90.3522 58 91.164 58 92C58 92.836 58.2819 93.6478 58.8004 94.3054L100.051 146.573C100.402 147.018 100.85 147.377 101.361 147.624C101.872 147.872 102.432 148 103 148C103.568 148 104.128 147.872 104.639 147.624C105.15 147.377 105.598 147.018 105.949 146.573L147.2 94.3054C147.718 93.6478 148 92.836 148 92C148 91.164 147.718 90.3522 147.2 89.6946ZM106.75 59.8607C106.75 56.9413 106.75 55.4816 107.31 54.9006C107.753 54.4409 108.388 54.2202 109.021 54.3067C109.82 54.4159 110.725 55.5618 112.533 57.8534L135.788 87.316C136.681 88.4479 137.128 89.0138 137.189 89.5882C137.238 90.0497 137.125 90.5139 136.869 90.9013C136.551 91.3834 135.894 91.6806 134.581 92.2752L111.326 102.8C109.77 103.504 108.992 103.856 108.365 103.733C107.863 103.635 107.418 103.347 107.121 102.93C106.75 102.41 106.75 101.556 106.75 99.8482V59.8607ZM99.2499 99.8482C99.2499 101.556 99.2499 102.41 98.8792 102.93C98.5824 103.347 98.1371 103.635 97.6349 103.733C97.0076 103.856 96.2297 103.504 94.674 102.8L71.4194 92.2752C70.1058 91.6806 69.449 91.3834 69.1308 90.9013C68.8751 90.5139 68.7621 90.0497 68.8111 89.5882C68.8721 89.0138 69.3188 88.4479 70.2121 87.316L93.4667 57.8534C95.2754 55.5618 96.1798 54.4159 96.979 54.3067C97.6115 54.2202 98.2473 54.4409 98.6902 54.9006C99.2499 55.4816 99.2499 56.9413 99.2499 59.8607V99.8482ZM97.3454 112.209C98.0494 112.527 98.4014 112.687 98.6566 112.939C98.8638 113.144 99.0237 113.392 99.125 113.665C99.2499 114.002 99.2499 114.388 99.2499 115.161V124.139C99.2499 127.058 99.2499 128.518 98.6902 129.099C98.2473 129.559 97.6115 129.78 96.979 129.693C96.1797 129.584 95.2754 128.438 93.4666 126.146L82.4457 112.182C79.981 109.059 78.7487 107.498 78.8862 106.633C78.9945 105.952 79.4459 105.374 80.0809 105.105C80.8875 104.763 82.6999 105.583 86.3245 107.223L97.3454 112.209ZM106.75 115.161C106.75 114.388 106.75 114.002 106.875 113.665C106.976 113.392 107.136 113.144 107.343 112.939C107.598 112.687 107.95 112.527 108.654 112.209L119.672 107.222C123.298 105.581 125.11 104.761 125.917 105.103C126.552 105.372 127.004 105.949 127.112 106.63C127.25 107.495 126.017 109.057 123.551 112.181L112.533 126.141C110.725 128.433 109.82 129.579 109.021 129.688C108.389 129.775 107.753 129.554 107.31 129.094C106.75 128.513 106.75 127.054 106.75 124.134V115.161Z"/></clipPath><clipPath id="paint3_diamond_4297_2853_clip_path"><path d="M147.2 89.6946L105.949 37.4265C105.598 36.982 105.15 36.6226 104.639 36.3755C104.128 36.1284 103.568 36 103 36C102.432 36 101.872 36.1284 101.361 36.3755C100.85 36.6226 100.402 36.982 100.051 37.4265L58.8004 89.6946C58.2819 90.3522 58 91.164 58 92C58 92.836 58.2819 93.6478 58.8004 94.3054L100.051 146.573C100.402 147.018 100.85 147.377 101.361 147.624C101.872 147.872 102.432 148 103 148C103.568 148 104.128 147.872 104.639 147.624C105.15 147.377 105.598 147.018 105.949 146.573L147.2 94.3054C147.718 93.6478 148 92.836 148 92C148 91.164 147.718 90.3522 147.2 89.6946ZM106.75 59.8607C106.75 56.9413 106.75 55.4816 107.31 54.9006C107.753 54.4409 108.388 54.2202 109.021 54.3067C109.82 54.4159 110.725 55.5618 112.533 57.8534L135.788 87.316C136.681 88.4479 137.128 89.0138 137.189 89.5882C137.238 90.0497 137.125 90.5139 136.869 90.9013C136.551 91.3834 135.894 91.6806 134.581 92.2752L111.326 102.8C109.77 103.504 108.992 103.856 108.365 103.733C107.863 103.635 107.418 103.347 107.121 102.93C106.75 102.41 106.75 101.556 106.75 99.8482V59.8607ZM99.2499 99.8482C99.2499 101.556 99.2499 102.41 98.8792 102.93C98.5824 103.347 98.1371 103.635 97.6349 103.733C97.0076 103.856 96.2297 103.504 94.674 102.8L71.4194 92.2752C70.1058 91.6806 69.449 91.3834 69.1308 90.9013C68.8751 90.5139 68.7621 90.0497 68.8111 89.5882C68.8721 89.0138 69.3188 88.4479 70.2121 87.316L93.4667 57.8534C95.2754 55.5618 96.1798 54.4159 96.979 54.3067C97.6115 54.2202 98.2473 54.4409 98.6902 54.9006C99.2499 55.4816 99.2499 56.9413 99.2499 59.8607V99.8482ZM97.3454 112.209C98.0494 112.527 98.4014 112.687 98.6566 112.939C98.8638 113.144 99.0237 113.392 99.125 113.665C99.2499 114.002 99.2499 114.388 99.2499 115.161V124.139C99.2499 127.058 99.2499 128.518 98.6902 129.099C98.2473 129.559 97.6115 129.78 96.979 129.693C96.1797 129.584 95.2754 128.438 93.4666 126.146L82.4457 112.182C79.981 109.059 78.7487 107.498 78.8862 106.633C78.9945 105.952 79.4459 105.374 80.0809 105.105C80.8875 104.763 82.6999 105.583 86.3245 107.223L97.3454 112.209ZM106.75 115.161C106.75 114.388 106.75 114.002 106.875 113.665C106.976 113.392 107.136 113.144 107.343 112.939C107.598 112.687 107.95 112.527 108.654 112.209L119.672 107.222C123.298 105.581 125.11 104.761 125.917 105.103C126.552 105.372 127.004 105.949 127.112 106.63C127.25 107.495 126.017 109.057 123.551 112.181L112.533 126.141C110.725 128.433 109.82 129.579 109.021 129.688C108.389 129.775 107.753 129.554 107.31 129.094C106.75 128.513 106.75 127.054 106.75 124.134V115.161Z"/></clipPath><linearGradient id="paint0_linear_4297_2853" x1="81.4857" y1="286.637" x2="0.649251" y2="286.637" gradientUnits="userSpaceOnUse">
<stop stop-color="white" stop-opacity="0"/>
<stop offset="1" stop-color="white"/>
</linearGradient>
<linearGradient id="paint1_linear_4297_2853" x1="184" y1="286.637" x2="75.2687" y2="286.637" gradientUnits="userSpaceOnUse">
<stop stop-color="white"/>
<stop offset="1" stop-color="white" stop-opacity="0"/>
</linearGradient>
<linearGradient id="paint2_diamond_4297_2853" x1="0" y1="0" x2="500" y2="500" gradientUnits="userSpaceOnUse">
<stop offset="0.421875" stop-color="#A349EF"/>
<stop offset="1" stop-color="#FF65E6"/>
</linearGradient>
<linearGradient id="paint3_diamond_4297_2853" x1="0" y1="0" x2="500" y2="500" gradientUnits="userSpaceOnUse">
<stop stop-color="#FF9FEA"/>
<stop offset="1" stop-color="white" stop-opacity="0"/>
</linearGradient>
<linearGradient id="paint4_linear_4297_2853" x1="60.25" y1="38.3333" x2="163.243" y2="130.083" gradientUnits="userSpaceOnUse">
<stop stop-color="#7A96AC"/>
<stop offset="0.18" stop-color="#EAEFF3"/>
<stop offset="0.315" stop-color="#C2D4E1"/>
<stop offset="0.491919" stop-color="white"/>
<stop offset="0.615" stop-color="#D4DEE5"/>
<stop offset="0.785" stop-color="#ABBDC8"/>
<stop offset="0.955" stop-color="#BCCAD7"/>
</linearGradient>
</defs>
</svg>

